<?xml version="1.0" encoding="utf-8"?>
<!-- Generator: Adobe Illustrator 19.2.1, SVG Export Plug-In . SVG Version: 6.00 Build 0)  -->
<svg version="1.1" id="Layer_1" xmlns="http://www.w3.org/2000/svg" xmlns:xlink="http://www.w3.org/1999/xlink" x="0px" y="0px"
	 viewBox="0 0 500 500" style="enable-background:new 0 0 500 500;" xml:space="preserve">
<style type="text/css">
	.st0{fill:#D7AAFF;}
</style>
<g>
	<path class="st0" d="M125.4,297.2L244,178.6c1.5-1.5,3.8-2.5,5.8-2.5s4.3,1,5.8,2.5l118.6,118.6c1.5,1.5,2.5,3.8,2.5,5.8
		s-1,4.3-2.5,5.8l-12.7,12.7c-1.5,1.5-3.6,2.5-5.8,2.5c-2,0-4.3-1-5.8-2.5l-100-100l-100,100c-1.5,1.5-3.8,2.5-5.8,2.5
		s-4.3-1-5.8-2.5l-12.7-12.7c-1.5-1.5-2.5-3.8-2.5-5.8C122.9,301,123.9,298.7,125.4,297.2z"/>
</g>
</svg>
