<?xml version="1.0" encoding="utf-8"?>
<!-- Generator: Adobe Illustrator 19.2.1, SVG Export Plug-In . SVG Version: 6.00 Build 0)  -->
<svg version="1.1" id="Layer_1" xmlns="http://www.w3.org/2000/svg" xmlns:xlink="http://www.w3.org/1999/xlink" x="0px" y="0px"
	 viewBox="0 0 500 500" style="enable-background:new 0 0 500 500;" xml:space="preserve">
<style type="text/css">
	.st0{fill:#D7AAFF;}
</style>
<g>
	<path class="st0" d="M374.4,202.9L255.8,321.5c-1.5,1.5-3.8,2.5-5.8,2.5s-4.3-1-5.8-2.5L125.6,202.9c-1.5-1.5-2.5-3.8-2.5-5.8
		s1-4.3,2.5-5.8l12.7-12.7c1.5-1.5,3.6-2.5,5.8-2.5c2,0,4.3,1,5.8,2.5l100,100l100-100c1.5-1.5,3.8-2.5,5.8-2.5s4.3,1,5.8,2.5
		l12.7,12.7c1.5,1.5,2.5,3.8,2.5,5.8C376.9,199.1,375.9,201.4,374.4,202.9z"/>
</g>
</svg>
