<?xml version="1.0" encoding="utf-8"?>
<!-- Generator: Adobe Illustrator 19.2.1, SVG Export Plug-In . SVG Version: 6.00 Build 0)  -->
<svg version="1.1" id="Layer_1" xmlns="http://www.w3.org/2000/svg" xmlns:xlink="http://www.w3.org/1999/xlink" x="0px" y="0px"
	 viewBox="0 0 1000 400" style="enable-background:new 0 0 1000 400;" xml:space="preserve">
<style type="text/css">
	.st0{fill:#FFFFFF;}
</style>
<path class="st0" d="M0,0v27.4h194.6V0H0z M222.2,0v27.4h277.4c0,0-28.3-27.4-65.9-27.4H222.2z M554,0v27.4h167.8L711.9,0H554z
	 M842.1,0l-10,27.4h166.3V0H842.1z M0,53.2v27.4h194.6V53.2H0z M222.2,53.3v27.3h309.6c0,0-3.6-21.1-9.9-27.3H222.2z M554,53.3v27.3
	h186.2L731,53.3H554z M822.2,53.3L813,80.6h185.5V53.3H822.2z M55.9,106.4v27.4h84.3v-27.4H55.9z M278.2,106.4v27.4h84.3v-27.4
	H278.2z M444.5,106.4v27.4h84.3c0,0,5.4-14.5,5.4-27.4H444.5z M610,106.4v27.4h149.5l-10-27.4H610z M803.9,106.4l-10,27.4h150.2
	v-27.4H803.9z M55.9,159.7v27.4h84.3v-27.4H55.9z M278.2,159.7v27.4h215.3c0,0,18-14,23.8-27.4H278.2z M610,159.7v27.4h84.3v-15.2
	l5.4,15.2H854l5.7-15.2v15.2h84.3v-27.4H785.8l-8.4,23.2l-8.4-23.2H610z M55.9,212.9v27.4h84.3v-27.4H55.9z M278.2,212.9v27.4h239.1
	c-5.7-13.3-23.8-27.4-23.8-27.4H278.2z M610,212.9v27.4h84.3v-27.4H610z M709.6,212.9l10.2,27.4h115.8l9.7-27.4H709.6z M859.8,212.9
	v27.4h84.3v-27.4H859.8z M55.9,266.1v27.4h84.3v-27.4H55.9z M278.2,266.1v27.4h84.3v-27.4H278.2z M444.5,266.1v27.4h89.6
	c0-12.9-5.4-27.4-5.4-27.4H444.5z M610,266.1v27.4h84.3v-27.4H610z M728.7,266.1l9.9,27.4h77.6l10-27.4H728.7z M859.8,266.1v27.4
	h84.3v-27.4H859.8z M1.5,319.4v27.4h194.6v-27.4H1.5z M222.2,319.4v27.4h299.6c6.3-6.3,9.9-27.4,9.9-27.4H222.2z M555.5,319.4v27.4
	h138.7v-27.4H555.5z M747.9,319.4l10.2,27.4h39.5l9.5-27.4H747.9z M859.8,319.4v27.4H1000v-27.4H859.8z M1.5,372.6V400h194.6v-27.4
	H1.5z M222.2,372.6V400h211.5c37.5,0,65.9-27.3,65.9-27.3H222.2z M555.5,372.6V400h138.7v-27.4H555.5z M767.1,372.6l9.8,27.3l1.7,0
	l9.9-27.3H767.1z M859.8,372.6V400H1000v-27.4H859.8z"/>
</svg>
