<?xml version="1.0" encoding="utf-8"?>
<!-- Generator: Adobe Illustrator 19.2.1, SVG Export Plug-In . SVG Version: 6.00 Build 0)  -->
<svg version="1.1" id="Layer_1" xmlns="http://www.w3.org/2000/svg" xmlns:xlink="http://www.w3.org/1999/xlink" x="0px" y="0px"
	 viewBox="0 0 20 20" style="enable-background:new 0 0 20 20;" xml:space="preserve">
<style type="text/css">
	.st0{fill:#FFFFFF;}
</style>
<path class="st0" d="M13.5,19h-8C4.7,19,4,18.3,4,17.5V8.2L1.7,9C1.4,9.1,1.1,8.9,1,8.7l-1-3c-0.1-0.2,0-0.5,0.3-0.6l6-3
	C6.4,2,6.6,2,6.8,2.1S7,2.3,7,2.5C7,3.9,8.1,5,9.5,5S12,3.9,12,2.5c0-0.2,0.1-0.3,0.2-0.4s0.3-0.1,0.5,0l6,3
	c0.2,0.1,0.3,0.4,0.3,0.6l-1,3c-0.1,0.3-0.4,0.4-0.6,0.3L15,8.2v9.3C15,18.3,14.3,19,13.5,19z M4.5,7c0.1,0,0.2,0,0.3,0.1
	C4.9,7.2,5,7.3,5,7.5v10C5,17.8,5.2,18,5.5,18h8c0.3,0,0.5-0.2,0.5-0.5v-10c0-0.2,0.1-0.3,0.2-0.4S14.5,7,14.7,7l2.5,0.8l0.7-2.1
	l-5-2.5C12.6,4.8,11.2,6,9.5,6S6.4,4.8,6.1,3.3l-5,2.5l0.7,2.1L4.3,7C4.4,7,4.4,7,4.5,7L4.5,7z"/>
</svg>
